<svg  viewBox="0 0 100 100" data-name="Layer 1" xmlns="http://www.w3.org/2000/svg"><title/><path d="M46.81,14.05a9.12,9.12,0,0,0-5.46,1.82h0a9.1,9.1,0,0,0-18.2,0h0A9.1,9.1,0,0,0,8.59,23.15V60.47a9.11,9.11,0,0,0,9.1,9.1,9,9,0,0,0,5.46-1.83h0a9.07,9.07,0,0,0,2.67,6.43A1.82,1.82,0,1,0,28.4,71.6a5.39,5.39,0,0,1-1.61-3.85V60.47a1.82,1.82,0,0,0-3.64,0,5.46,5.46,0,1,1-10.92,0V23.15a5.46,5.46,0,0,1,10.92,0,1.82,1.82,0,0,0,3.64,0V15.87a5.46,5.46,0,0,1,10.92,0v7.28a1.82,1.82,0,1,0,3.64,0,5.47,5.47,0,0,1,10.93,0V60.47a5.47,5.47,0,0,1-10.93,0,1.82,1.82,0,0,0-3.64,0v7.28a5.48,5.48,0,0,1-1.87,4.11,1.82,1.82,0,1,0,2.39,2.74,9.09,9.09,0,0,0,3.12-6.85h0a9.1,9.1,0,0,0,14.57-7.27V23.15A9.12,9.12,0,0,0,46.81,14.05Z"/><path d="M43.1,51.29a1.82,1.82,0,0,0-2.58-2.58l-6.45,6.45V44.84l9-9a1.82,1.82,0,0,0-2.58-2.57l-8.3,8.3L23.5,33.21A1.82,1.82,0,1,0,21,35.84l9.45,9V55.3L23.5,48.68A1.82,1.82,0,1,0,21,51.32l9.45,9V91.41a1.82,1.82,0,0,0,3.64,0V60.31Z"/><path d="M82.31,48.63a9,9,0,0,0-5.46,1.83V47.72a9.1,9.1,0,1,0-18.2,0V65a9.11,9.11,0,0,0,9.1,9.1,8.61,8.61,0,0,0,1.83-.19,1.82,1.82,0,1,0-.74-3.56,5.6,5.6,0,0,1-1.09.11A5.47,5.47,0,0,1,62.29,65V47.72a5.46,5.46,0,1,1,10.92,0v10a1.82,1.82,0,1,0,3.64,0,5.46,5.46,0,1,1,10.92,0V65a5.47,5.47,0,0,1-5.46,5.46,5.35,5.35,0,0,1-1.13-.12,1.82,1.82,0,0,0-.75,3.56,9.08,9.08,0,0,0,11-8.9V57.74A9.12,9.12,0,0,0,82.31,48.63Z"/><path d="M82.69,61.75a1.82,1.82,0,1,0-2.58-2.57L75,64.26,70,59.18a1.82,1.82,0,1,0-2.58,2.57l5.84,5.84V91.41a1.82,1.82,0,1,0,3.64,0V67.59Z"/></svg>