<svg viewBox="0 0 100 100" data-name="Layer 1" xmlns="http://www.w3.org/2000/svg"><title/><path d="M38.23,59.84a1.82,1.82,0,0,0,.49-3.61c-18-2.43-31-11.94-31-22.61,0-12.8,18-23.21,40-23.21S87.77,20.82,87.77,33.62c0,10.73-13.14,20.26-31.25,22.64a1.82,1.82,0,0,0,.24,3.62H57C77.26,57.2,91.41,46.41,91.41,33.62c0-14.81-19.6-26.85-43.69-26.85S4,18.81,4,33.62C4,46.34,18.1,57.12,38.23,59.84Z"/><path d="M76.4,58.65c-11,0-19.57,5.39-19.57,12.28,0,5.6,5.71,10.36,14.22,11.84a1.67,1.67,0,0,0,.31,0,1.82,1.82,0,0,0,.31-3.61c-6.49-1.13-11.2-4.6-11.2-8.25,0-4.68,7.29-8.64,15.93-8.64s15.92,4,15.92,8.64c0,3.47-4.23,6.79-10.29,8.07a1.82,1.82,0,1,0,.76,3.56C90.79,80.86,96,76.3,96,70.93,96,64,87.37,58.65,76.4,58.65Z"/><path d="M65.93,69.57a1.81,1.81,0,0,0-1.82,1.82v1.75c0,1.62,1.61,2.8,3.83,2.8H75V91.41a1.82,1.82,0,0,0,3.64,0V75.94h6.18c2.22,0,3.83-1.18,3.83-2.8V71.39a1.82,1.82,0,0,0-3.64,0v.9H78.67V67.75a1.82,1.82,0,0,0-3.64,0V72.3H67.75v-.9A1.82,1.82,0,0,0,65.93,69.57Z"/><path d="M24.06,33.16A1.82,1.82,0,0,0,22.24,35v5.85c0,2.85,2.8,5.07,6.37,5.07H45.9V91.41a1.82,1.82,0,0,0,3.64,0V45.9h17.3c3.57,0,6.37-2.22,6.37-5.07V35a1.82,1.82,0,1,0-3.64,0v5.85c0,.57-1.09,1.43-2.73,1.43H49.54V36.8H61.78c2.84,0,5.06-1.81,5.06-4.13V28.61a1.82,1.82,0,0,0-3.64,0v4a1.69,1.69,0,0,1-1.42.54H49.54V25a1.82,1.82,0,0,0-3.64,0v8.19H34.58a1.9,1.9,0,0,1-1.42-.49V28.61a1.82,1.82,0,1,0-3.64,0v4.06c0,2.32,2.22,4.13,5.06,4.13H45.9v5.46H28.61c-1.64,0-2.73-.86-2.73-1.43V35A1.82,1.82,0,0,0,24.06,33.16Z"/></svg>