<svg viewBox="0 0 100 100" data-name="Layer 1" xmlns="http://www.w3.org/2000/svg"><title/><path d="M72.78,82.49a1.8,1.8,0,0,0,.6.1,1.82,1.82,0,0,0,.6-3.54c-5-1.75-7.76-6.2-7.76-12.53,0-7.49,9.27-16.11,12.54-18.91C82,50.41,91.3,59,91.3,66.52c0,6.2-2.66,10.62-7.5,12.44a1.82,1.82,0,0,0,1.28,3.41c6.27-2.36,9.86-8.14,9.86-15.85,0-10.82-14.44-22.23-15.06-22.71l-1.12-.88-1.12.88C77,44.29,62.58,55.7,62.58,66.52,62.58,74.4,66.3,80.22,72.78,82.49Z"/><path d="M26.44,79a1.82,1.82,0,1,0,.83-3.54C15.47,72.66,8.7,63.13,8.7,49.26c0-15.84,20.41-33.86,25.46-38.08,5.06,4.22,25.46,22.23,25.46,38.08,0,13.9-6.79,23.43-18.62,26.17a1.82,1.82,0,0,0,.4,3.6,2,2,0,0,0,.42,0c13.42-3.11,21.44-14.21,21.44-29.72,0-8.37-4.74-18-14.09-28.58A115.11,115.11,0,0,0,35.28,7.4l-1.12-.88L33,7.4A115.46,115.46,0,0,0,19.16,20.68C9.8,31.27,5.06,40.89,5.06,49.26,5.06,64.74,13.05,75.84,26.44,79Z"/><path d="M78.76,93.48a1.82,1.82,0,0,0,1.82-1.82v-15l5.92-5.92a1.82,1.82,0,0,0-2.57-2.58l-3.35,3.35v-8a1.82,1.82,0,1,0-3.64,0v8l-3.35-3.35A1.82,1.82,0,0,0,71,70.72l5.92,5.92v15A1.82,1.82,0,0,0,78.76,93.48Z"/><path d="M34.16,93.48A1.82,1.82,0,0,0,36,91.66V72.39L51.83,56.54A1.82,1.82,0,1,0,49.26,54L36,67.24V55.09l12.21-12.2a1.82,1.82,0,1,0-2.57-2.58L36,50V33.41a1.82,1.82,0,0,0-3.64,0V50l-9.63-9.64a1.82,1.82,0,0,0-2.58,2.58l12.21,12.2V67.24L19.07,54a1.82,1.82,0,0,0-2.58,2.58L32.34,72.39V91.66A1.83,1.83,0,0,0,34.16,93.48Z"/></svg>